{"glyphs":{"0":{"ha":667,"x_min":0,"x_max":0,"o":"m 181 843 l 181 129 b 319 -10 181 39 229 -10 l 347 -10 b 486 129 438 -10 486 39 l 486 843 b 347 982 486 933 438 982 l 319 982 b 181 843 229 982 181 933 z m 278 129 l 278 843 b 333 899 278 879 297 899 b 389 843 369 899 389 879 l 389 129 b 333 74 389 93 369 74 b 278 129 297 74 278 93 z "},"1":{"ha":504,"x_min":0,"x_max":0,"o":"m 258 0 l 317 0 l 317 933 b 278 972 317 958 303 972 l 132 972 l 154 917 b 200 886 163 896 178 886 l 219 886 l 219 39 b 258 0 219 14 233 0 z "},"2":{"ha":628,"x_min":0,"x_max":0,"o":"m 421 0 l 167 0 l 167 86 b 375 767 167 342 375 604 l 375 843 b 319 899 375 879 356 899 b 264 843 283 899 264 879 l 264 721 l 197 747 b 167 793 176 756 167 771 l 167 843 b 306 982 167 933 215 982 l 333 982 b 472 843 424 982 472 933 l 472 772 b 263 86 472 593 263 347 l 489 86 l 467 31 b 421 0 458 10 443 0 z "},"3":{"ha":667,"x_min":0,"x_max":0,"o":"m 319 -10 l 347 -10 b 486 129 438 -10 486 39 l 486 414 b 443 510 486 454 471 486 b 486 606 471 533 486 565 l 486 843 b 347 982 486 933 438 982 l 319 982 b 181 843 229 982 181 933 l 181 793 b 211 747 181 771 190 756 l 278 721 l 278 843 b 333 899 278 879 297 899 b 389 843 369 899 389 879 l 389 608 b 333 553 389 572 369 553 l 294 553 l 294 506 b 333 467 294 481 308 467 b 389 411 369 467 389 447 l 389 129 b 333 74 389 93 369 74 b 278 129 297 74 278 93 l 278 249 b 247 294 278 271 268 286 l 181 321 l 181 129 b 319 -10 181 39 229 -10 z "},"4":{"ha":668,"x_min":0,"x_max":0,"o":"m 331 39 b 369 0 331 14 344 0 l 428 0 l 428 235 l 447 235 b 493 265 469 235 485 244 l 515 321 l 428 321 l 428 972 l 361 972 b 317 939 339 972 324 961 l 118 321 l 140 265 b 186 235 149 244 164 235 l 331 235 z m 219 321 l 331 682 l 331 321 z "},"5":{"ha":631,"x_min":0,"x_max":0,"o":"m 181 592 l 181 933 b 219 972 181 958 194 972 l 492 972 l 469 917 b 424 886 461 896 446 886 l 278 886 l 278 639 l 347 639 b 486 500 438 639 486 590 l 486 129 b 347 -10 486 39 438 -10 l 319 -10 b 181 129 229 -10 181 39 l 181 321 l 247 294 b 278 249 268 286 278 271 l 278 129 b 333 74 278 93 297 74 b 389 129 369 74 389 93 l 389 497 b 333 553 389 533 369 553 l 219 553 b 181 592 194 553 181 567 z "},"6":{"ha":667,"x_min":0,"x_max":0,"o":"m 333 76 b 278 132 297 76 278 96 l 278 553 l 333 553 b 389 497 369 553 389 533 l 389 132 b 333 76 389 96 369 76 z m 181 129 b 319 -10 181 39 229 -10 l 347 -10 b 486 129 438 -10 486 39 l 486 500 b 347 639 486 590 438 639 l 278 639 l 278 843 b 333 899 278 879 297 899 b 389 843 369 899 389 879 l 389 721 l 456 747 b 486 793 476 756 486 771 l 486 843 b 347 982 486 933 438 982 l 319 982 b 181 843 229 982 181 933 z "},"7":{"ha":518,"x_min":0,"x_max":0,"o":"m 157 0 l 218 0 b 258 36 242 0 254 11 l 400 972 l 76 972 l 99 917 b 144 886 107 896 122 886 l 292 886 z "},"8":{"ha":667,"x_min":0,"x_max":0,"o":"m 319 -10 l 347 -10 b 486 129 438 -10 486 39 l 486 414 b 443 510 486 454 471 486 b 486 606 471 533 486 565 l 486 843 b 347 982 486 933 438 982 l 319 982 b 181 843 229 982 181 933 l 181 606 b 224 510 181 565 196 533 b 181 414 196 486 181 454 l 181 129 b 319 -10 181 39 229 -10 z m 278 132 l 278 411 b 333 467 278 447 297 467 b 389 411 369 467 389 447 l 389 132 b 333 76 389 96 369 76 b 278 132 297 76 278 96 z m 278 608 l 278 840 b 333 896 278 876 297 896 b 389 840 369 896 389 876 l 389 608 b 333 553 389 572 369 553 b 278 608 297 553 278 572 z "},"9":{"ha":667,"x_min":0,"x_max":0,"o":"m 333 896 b 389 840 369 896 389 876 l 389 553 l 333 553 b 278 608 297 553 278 572 l 278 840 b 333 896 278 876 297 896 z m 181 129 b 319 -10 181 39 229 -10 l 347 -10 b 486 129 438 -10 486 39 l 486 843 b 347 982 486 933 438 982 l 319 982 b 181 843 229 982 181 933 l 181 606 b 319 467 181 515 229 467 l 389 467 l 389 129 b 333 74 389 93 369 74 b 278 129 297 74 278 93 l 278 321 l 211 294 b 181 249 190 286 181 271 z "},"A":{"ha":622,"x_min":0,"x_max":0,"o":"m 118 0 l 219 0 l 311 707 l 403 0 l 504 0 l 369 936 b 328 972 367 960 351 972 l 258 972 z "},"B":{"ha":660,"x_min":0,"x_max":0,"o":"m 354 972 l 188 972 l 188 0 l 354 0 b 493 139 444 0 493 49 l 493 414 b 450 510 493 454 478 486 b 493 606 478 533 493 565 l 493 833 b 354 972 493 924 444 972 z m 285 86 l 285 467 l 340 467 b 396 411 376 467 396 447 l 396 142 b 340 86 396 106 376 86 z m 285 553 l 285 886 l 340 886 b 396 831 376 886 396 867 l 396 608 b 340 553 396 572 376 553 z "},"C":{"ha":639,"x_min":0,"x_max":0,"o":"m 389 251 l 389 129 b 333 74 389 93 369 74 b 278 129 297 74 278 93 l 278 843 b 333 899 278 879 297 899 b 389 843 369 899 389 879 l 389 649 l 456 675 b 486 721 476 683 486 699 l 486 843 b 347 982 486 933 438 982 l 319 982 b 181 843 229 982 181 933 l 181 129 b 319 -10 181 39 229 -10 l 347 -10 b 486 129 438 -10 486 39 l 486 324 l 419 297 b 389 251 399 289 389 274 z "},"Ç":{"ha":639,"x_min":0,"x_max":0,"o":"m 389 251 l 389 129 b 333 74 389 93 369 74 b 278 129 297 74 278 93 l 278 843 b 333 899 278 879 297 899 b 389 843 369 899 389 879 l 389 649 l 456 675 b 486 721 476 683 486 699 l 486 843 b 347 982 486 933 438 982 l 319 982 b 181 843 229 982 181 933 l 181 129 b 292 -8 181 49 219 1 l 292 -104 l 336 -104 b 375 -65 361 -104 375 -90 l 375 -8 b 486 129 447 1 486 49 l 486 324 l 419 297 b 389 251 399 289 389 274 z "},"D":{"ha":674,"x_min":0,"x_max":0,"o":"m 354 972 l 188 972 l 188 0 l 354 0 b 493 139 444 0 493 49 l 493 833 b 354 972 493 924 444 972 z m 285 86 l 285 886 l 340 886 b 396 831 376 886 396 867 l 396 142 b 340 86 396 106 376 86 z "},"E":{"ha":571,"x_min":0,"x_max":0,"o":"m 174 933 l 174 0 l 413 0 b 458 31 435 0 450 10 l 481 86 l 271 86 l 271 467 l 357 467 b 403 497 379 467 394 476 l 425 553 l 271 553 l 271 886 l 397 886 b 443 917 419 886 435 896 l 465 972 l 213 972 b 174 933 188 972 174 958 z "},"F":{"ha":569,"x_min":0,"x_max":0,"o":"m 188 933 l 188 0 l 285 0 l 285 467 l 371 467 b 417 497 393 467 408 476 l 439 553 l 285 553 l 285 886 l 411 886 b 457 917 433 886 449 896 l 479 972 l 226 972 b 188 933 201 972 188 958 z "},"G":{"ha":667,"x_min":0,"x_max":0,"o":"m 486 129 l 486 553 l 321 553 l 343 497 b 389 467 351 476 367 467 l 389 129 b 333 74 389 93 369 74 b 278 129 297 74 278 93 l 278 843 b 333 899 278 879 297 899 b 389 843 369 899 389 879 l 389 649 l 456 675 b 486 721 476 683 486 699 l 486 843 b 347 982 486 933 438 982 l 319 982 b 181 843 229 982 181 933 l 181 129 b 319 -10 181 39 229 -10 l 347 -10 b 486 129 438 -10 486 39 z "},"H":{"ha":681,"x_min":0,"x_max":0,"o":"m 188 933 l 188 0 l 285 0 l 285 467 l 396 467 l 396 0 l 493 0 l 493 933 b 454 972 493 958 479 972 l 396 972 l 396 553 l 285 553 l 285 972 l 226 972 b 188 933 201 972 188 958 z "},"I":{"ha":444,"x_min":0,"x_max":0,"o":"m 232 972 l 174 972 l 174 0 l 271 0 l 271 933 b 232 972 271 958 257 972 z "},"J":{"ha":576,"x_min":0,"x_max":0,"o":"m 357 972 l 299 972 l 299 129 b 243 74 299 93 279 74 b 188 129 207 74 188 93 l 188 294 l 121 268 b 90 222 100 260 90 244 l 90 129 b 229 -10 90 39 139 -10 l 257 -10 b 396 129 347 -10 396 39 l 396 933 b 357 972 396 958 382 972 z "},"K":{"ha":656,"x_min":0,"x_max":0,"o":"m 285 972 l 226 972 b 188 933 201 972 188 958 l 188 0 l 285 0 z m 319 508 l 456 33 b 500 0 463 11 478 0 l 565 0 l 418 508 l 539 972 l 439 972 z "},"L":{"ha":529,"x_min":0,"x_max":0,"o":"m 257 933 b 218 972 257 958 243 972 l 160 972 l 160 0 l 385 0 b 431 31 407 0 422 10 l 453 86 l 257 86 z "},"M":{"ha":808,"x_min":0,"x_max":0,"o":"m 250 972 l 188 972 l 188 0 l 285 0 l 285 625 l 350 221 b 392 185 354 197 368 185 l 453 185 l 524 619 l 524 0 l 621 0 l 621 972 l 558 972 b 517 938 535 972 521 960 l 404 353 l 292 938 b 250 972 288 960 274 972 z "},"N":{"ha":708,"x_min":0,"x_max":0,"o":"m 250 972 l 188 972 l 188 0 l 285 0 l 285 629 l 417 35 b 458 0 422 13 435 0 l 521 0 l 521 972 l 424 972 l 424 343 l 292 938 b 250 972 286 960 274 972 z "},"O":{"ha":672,"x_min":0,"x_max":0,"o":"m 181 843 l 181 129 b 319 -10 181 39 229 -10 l 353 -10 b 492 129 443 -10 492 39 l 492 843 b 353 982 492 933 443 982 l 319 982 b 181 843 229 982 181 933 z m 278 129 l 278 843 b 333 899 278 879 297 899 l 339 899 b 394 843 375 899 394 879 l 394 129 b 339 74 394 93 375 74 l 333 74 b 278 129 297 74 278 93 z "},"P":{"ha":618,"x_min":0,"x_max":0,"o":"m 354 972 l 188 972 l 188 39 b 226 0 188 14 201 0 l 285 0 l 285 467 l 354 467 b 493 606 444 467 493 515 l 493 833 b 354 972 493 924 444 972 z m 285 553 l 285 886 l 340 886 b 396 831 376 886 396 867 l 396 608 b 340 553 396 572 376 553 z "},"Q":{"ha":658,"x_min":0,"x_max":0,"o":"m 181 843 l 181 129 b 319 -10 181 39 229 -10 l 347 -10 b 453 29 394 -10 429 3 b 499 0 461 10 478 0 l 561 0 l 486 183 l 486 843 b 347 982 486 933 438 982 l 319 982 b 181 843 229 982 181 933 z m 278 129 l 278 843 b 333 899 278 879 297 899 b 389 843 369 899 389 879 l 389 294 l 333 294 l 389 171 l 389 129 b 333 74 389 93 369 74 b 278 129 297 74 278 93 z "},"R":{"ha":667,"x_min":0,"x_max":0,"o":"m 354 972 l 188 972 l 188 0 l 285 0 l 285 467 l 340 467 b 396 411 376 467 396 447 l 396 39 b 435 0 396 14 410 0 l 493 0 l 493 414 b 450 510 493 454 478 486 b 493 606 478 533 493 565 l 493 833 b 354 972 493 924 444 972 z m 285 553 l 285 886 l 340 886 b 396 831 376 886 396 867 l 396 608 b 340 553 396 572 376 553 z "},"S":{"ha":583,"x_min":0,"x_max":0,"o":"m 236 807 l 236 843 b 292 899 236 879 256 899 b 347 843 328 899 347 879 l 347 721 l 414 747 b 444 793 435 756 444 771 l 444 843 b 306 982 444 933 396 982 l 278 982 b 139 843 188 982 139 933 l 139 807 b 347 264 139 674 347 406 l 347 129 b 292 74 347 93 328 74 b 236 129 256 74 236 93 l 236 313 l 169 286 b 139 240 149 278 139 263 l 139 129 b 278 -10 139 39 188 -10 l 306 -10 b 444 129 396 -10 444 39 l 444 264 b 236 807 444 433 236 676 z "},"T":{"ha":496,"x_min":0,"x_max":0,"o":"m 439 917 l 461 972 l 88 972 b 49 933 63 972 49 958 l 49 886 l 199 886 l 199 0 l 296 0 l 296 886 l 393 886 b 439 917 415 886 431 896 z "},"U":{"ha":653,"x_min":0,"x_max":0,"o":"m 479 972 l 479 129 b 340 -10 479 39 431 -10 l 313 -10 b 174 129 222 -10 174 39 l 174 972 l 232 972 b 271 933 257 972 271 958 l 271 129 b 326 74 271 93 290 74 b 382 129 363 74 382 93 l 382 972 z "},"V":{"ha":589,"x_min":0,"x_max":0,"o":"m 281 0 l 344 0 l 485 972 l 386 972 l 294 293 l 208 936 b 167 972 206 961 190 972 l 104 972 l 239 36 b 281 0 242 13 257 0 z "},"W":{"ha":839,"x_min":0,"x_max":0,"o":"m 281 0 l 342 0 l 419 639 l 492 36 b 533 0 494 13 510 0 l 594 0 l 721 972 l 660 972 b 619 936 636 972 622 961 l 546 293 l 468 972 l 407 972 b 367 936 383 972 369 961 l 293 293 l 219 936 b 179 972 217 961 203 972 l 118 972 l 239 36 b 281 0 242 13 257 0 z "},"X":{"ha":608,"x_min":0,"x_max":0,"o":"m 90 0 l 190 0 l 304 374 l 408 32 b 451 0 415 11 429 0 l 518 0 l 361 510 l 511 972 l 450 972 b 399 933 425 972 407 958 l 304 650 l 210 933 b 158 972 201 958 183 972 l 97 972 l 247 510 z "},"Y":{"ha":564,"x_min":0,"x_max":0,"o":"m 233 394 l 233 39 b 272 0 233 14 247 0 l 331 0 l 331 394 l 474 972 l 407 972 b 365 936 383 972 371 960 l 282 571 l 199 936 b 157 972 193 960 181 972 l 90 972 z "},"Z":{"ha":533,"x_min":0,"x_max":0,"o":"m 457 972 l 121 972 l 143 917 b 189 886 151 896 167 886 l 332 886 l 76 0 l 379 0 b 425 31 401 0 417 10 l 447 86 l 201 86 z "},"a":{"ha":622,"x_min":0,"x_max":0,"o":"m 118 0 l 219 0 l 311 707 l 403 0 l 504 0 l 369 936 b 328 972 367 960 351 972 l 258 972 z "},"b":{"ha":660,"x_min":0,"x_max":0,"o":"m 354 972 l 188 972 l 188 0 l 354 0 b 493 139 444 0 493 49 l 493 414 b 450 510 493 454 478 486 b 493 606 478 533 493 565 l 493 833 b 354 972 493 924 444 972 z m 285 86 l 285 467 l 340 467 b 396 411 376 467 396 447 l 396 142 b 340 86 396 106 376 86 z m 285 553 l 285 886 l 340 886 b 396 831 376 886 396 867 l 396 608 b 340 553 396 572 376 553 z "},"c":{"ha":639,"x_min":0,"x_max":0,"o":"m 389 251 l 389 129 b 333 74 389 93 369 74 b 278 129 297 74 278 93 l 278 843 b 333 899 278 879 297 899 b 389 843 369 899 389 879 l 389 649 l 456 675 b 486 721 476 683 486 699 l 486 843 b 347 982 486 933 438 982 l 319 982 b 181 843 229 982 181 933 l 181 129 b 319 -10 181 39 229 -10 l 347 -10 b 486 129 438 -10 486 39 l 486 324 l 419 297 b 389 251 399 289 389 274 z "},"ç":{"ha":639,"x_min":0,"x_max":0,"o":"m 389 251 l 389 129 b 333 74 389 93 369 74 b 278 129 297 74 278 93 l 278 843 b 333 899 278 879 297 899 b 389 843 369 899 389 879 l 389 649 l 456 675 b 486 721 476 683 486 699 l 486 843 b 347 982 486 933 438 982 l 319 982 b 181 843 229 982 181 933 l 181 129 b 292 -8 181 49 219 1 l 292 -104 l 336 -104 b 375 -65 361 -104 375 -90 l 375 -8 b 486 129 447 1 486 49 l 486 324 l 419 297 b 389 251 399 289 389 274 z "},"d":{"ha":674,"x_min":0,"x_max":0,"o":"m 354 972 l 188 972 l 188 0 l 354 0 b 493 139 444 0 493 49 l 493 833 b 354 972 493 924 444 972 z m 285 86 l 285 886 l 340 886 b 396 831 376 886 396 867 l 396 142 b 340 86 396 106 376 86 z "},"e":{"ha":571,"x_min":0,"x_max":0,"o":"m 174 933 l 174 0 l 413 0 b 458 31 435 0 450 10 l 481 86 l 271 86 l 271 467 l 357 467 b 403 497 379 467 394 476 l 425 553 l 271 553 l 271 886 l 397 886 b 443 917 419 886 435 896 l 465 972 l 213 972 b 174 933 188 972 174 958 z "},"f":{"ha":569,"x_min":0,"x_max":0,"o":"m 188 933 l 188 0 l 285 0 l 285 467 l 371 467 b 417 497 393 467 408 476 l 439 553 l 285 553 l 285 886 l 411 886 b 457 917 433 886 449 896 l 479 972 l 226 972 b 188 933 201 972 188 958 z "},"g":{"ha":667,"x_min":0,"x_max":0,"o":"m 486 129 l 486 553 l 321 553 l 343 497 b 389 467 351 476 367 467 l 389 129 b 333 74 389 93 369 74 b 278 129 297 74 278 93 l 278 843 b 333 899 278 879 297 899 b 389 843 369 899 389 879 l 389 649 l 456 675 b 486 721 476 683 486 699 l 486 843 b 347 982 486 933 438 982 l 319 982 b 181 843 229 982 181 933 l 181 129 b 319 -10 181 39 229 -10 l 347 -10 b 486 129 438 -10 486 39 z "},"h":{"ha":681,"x_min":0,"x_max":0,"o":"m 188 933 l 188 0 l 285 0 l 285 467 l 396 467 l 396 0 l 493 0 l 493 933 b 454 972 493 958 479 972 l 396 972 l 396 553 l 285 553 l 285 972 l 226 972 b 188 933 201 972 188 958 z "},"i":{"ha":444,"x_min":0,"x_max":0,"o":"m 232 972 l 174 972 l 174 0 l 271 0 l 271 933 b 232 972 271 958 257 972 z "},"j":{"ha":576,"x_min":0,"x_max":0,"o":"m 357 972 l 299 972 l 299 129 b 243 74 299 93 279 74 b 188 129 207 74 188 93 l 188 294 l 121 268 b 90 222 100 260 90 244 l 90 129 b 229 -10 90 39 139 -10 l 257 -10 b 396 129 347 -10 396 39 l 396 933 b 357 972 396 958 382 972 z "},"k":{"ha":656,"x_min":0,"x_max":0,"o":"m 285 972 l 226 972 b 188 933 201 972 188 958 l 188 0 l 285 0 z m 319 508 l 456 33 b 500 0 463 11 478 0 l 565 0 l 418 508 l 539 972 l 439 972 z "},"l":{"ha":529,"x_min":0,"x_max":0,"o":"m 257 933 b 218 972 257 958 243 972 l 160 972 l 160 0 l 385 0 b 431 31 407 0 422 10 l 453 86 l 257 86 z "},"m":{"ha":808,"x_min":0,"x_max":0,"o":"m 250 972 l 188 972 l 188 0 l 285 0 l 285 625 l 350 221 b 392 185 354 197 368 185 l 453 185 l 524 619 l 524 0 l 621 0 l 621 972 l 558 972 b 517 938 535 972 521 960 l 404 353 l 292 938 b 250 972 288 960 274 972 z "},"n":{"ha":708,"x_min":0,"x_max":0,"o":"m 250 972 l 188 972 l 188 0 l 285 0 l 285 629 l 417 35 b 458 0 422 13 435 0 l 521 0 l 521 972 l 424 972 l 424 343 l 292 938 b 250 972 286 960 274 972 z "},"o":{"ha":672,"x_min":0,"x_max":0,"o":"m 181 843 l 181 129 b 319 -10 181 39 229 -10 l 353 -10 b 492 129 443 -10 492 39 l 492 843 b 353 982 492 933 443 982 l 319 982 b 181 843 229 982 181 933 z m 278 129 l 278 843 b 333 899 278 879 297 899 l 339 899 b 394 843 375 899 394 879 l 394 129 b 339 74 394 93 375 74 l 333 74 b 278 129 297 74 278 93 z "},"p":{"ha":618,"x_min":0,"x_max":0,"o":"m 354 972 l 188 972 l 188 39 b 226 0 188 14 201 0 l 285 0 l 285 467 l 354 467 b 493 606 444 467 493 515 l 493 833 b 354 972 493 924 444 972 z m 285 553 l 285 886 l 340 886 b 396 831 376 886 396 867 l 396 608 b 340 553 396 572 376 553 z "},"q":{"ha":658,"x_min":0,"x_max":0,"o":"m 181 843 l 181 129 b 319 -10 181 39 229 -10 l 347 -10 b 453 29 394 -10 429 3 b 499 0 461 10 478 0 l 561 0 l 486 183 l 486 843 b 347 982 486 933 438 982 l 319 982 b 181 843 229 982 181 933 z m 278 129 l 278 843 b 333 899 278 879 297 899 b 389 843 369 899 389 879 l 389 294 l 333 294 l 389 171 l 389 129 b 333 74 389 93 369 74 b 278 129 297 74 278 93 z "},"r":{"ha":667,"x_min":0,"x_max":0,"o":"m 354 972 l 188 972 l 188 0 l 285 0 l 285 467 l 340 467 b 396 411 376 467 396 447 l 396 39 b 435 0 396 14 410 0 l 493 0 l 493 414 b 450 510 493 454 478 486 b 493 606 478 533 493 565 l 493 833 b 354 972 493 924 444 972 z m 285 553 l 285 886 l 340 886 b 396 831 376 886 396 867 l 396 608 b 340 553 396 572 376 553 z "},"s":{"ha":583,"x_min":0,"x_max":0,"o":"m 236 807 l 236 843 b 292 899 236 879 256 899 b 347 843 328 899 347 879 l 347 721 l 414 747 b 444 793 435 756 444 771 l 444 843 b 306 982 444 933 396 982 l 278 982 b 139 843 188 982 139 933 l 139 807 b 347 264 139 674 347 406 l 347 129 b 292 74 347 93 328 74 b 236 129 256 74 236 93 l 236 313 l 169 286 b 139 240 149 278 139 263 l 139 129 b 278 -10 139 39 188 -10 l 306 -10 b 444 129 396 -10 444 39 l 444 264 b 236 807 444 433 236 676 z "},"t":{"ha":496,"x_min":0,"x_max":0,"o":"m 439 917 l 461 972 l 88 972 b 49 933 63 972 49 958 l 49 886 l 199 886 l 199 0 l 296 0 l 296 886 l 393 886 b 439 917 415 886 431 896 z "},"u":{"ha":653,"x_min":0,"x_max":0,"o":"m 479 972 l 479 129 b 340 -10 479 39 431 -10 l 313 -10 b 174 129 222 -10 174 39 l 174 972 l 232 972 b 271 933 257 972 271 958 l 271 129 b 326 74 271 93 290 74 b 382 129 363 74 382 93 l 382 972 z "},"v":{"ha":589,"x_min":0,"x_max":0,"o":"m 281 0 l 344 0 l 485 972 l 386 972 l 294 293 l 208 936 b 167 972 206 961 190 972 l 104 972 l 239 36 b 281 0 242 13 257 0 z "},"w":{"ha":839,"x_min":0,"x_max":0,"o":"m 281 0 l 342 0 l 419 639 l 492 36 b 533 0 494 13 510 0 l 594 0 l 721 972 l 660 972 b 619 936 636 972 622 961 l 546 293 l 468 972 l 407 972 b 367 936 383 972 369 961 l 293 293 l 219 936 b 179 972 217 961 203 972 l 118 972 l 239 36 b 281 0 242 13 257 0 z "},"x":{"ha":608,"x_min":0,"x_max":0,"o":"m 90 0 l 190 0 l 304 374 l 408 32 b 451 0 415 11 429 0 l 518 0 l 361 510 l 511 972 l 450 972 b 399 933 425 972 407 958 l 304 650 l 210 933 b 158 972 201 958 183 972 l 97 972 l 247 510 z "},"y":{"ha":564,"x_min":0,"x_max":0,"o":"m 233 394 l 233 39 b 272 0 233 14 247 0 l 331 0 l 331 394 l 474 972 l 407 972 b 365 936 383 972 371 960 l 282 571 l 199 936 b 157 972 193 960 181 972 l 90 972 z "},"z":{"ha":533,"x_min":0,"x_max":0,"o":"m 457 972 l 121 972 l 143 917 b 189 886 151 896 167 886 l 332 886 l 76 0 l 379 0 b 425 31 401 0 417 10 l 447 86 l 201 86 z "},".":{"ha":211,"x_min":0,"x_max":0,"o":"m 149 39 l 149 128 l 63 128 l 63 0 l 110 0 b 149 39 135 0 149 14 z "},",":{"ha":253,"x_min":0,"x_max":0,"o":"m 158 -35 l 190 128 l 104 128 l 63 -69 l 115 -69 b 158 -35 139 -69 154 -57 z "},"!":{"ha":444,"x_min":0,"x_max":0,"o":"m 271 39 l 271 128 l 174 128 l 174 0 l 232 0 b 271 39 257 0 271 14 z m 174 256 l 232 256 b 271 294 257 256 271 269 l 271 972 l 174 972 z "},"?":{"ha":583,"x_min":0,"x_max":0,"o":"m 444 793 l 444 843 b 306 982 444 933 396 982 l 278 982 b 139 843 188 982 139 933 l 139 793 b 169 747 139 771 149 756 l 236 721 l 236 843 b 292 899 236 879 256 899 b 347 843 328 899 347 879 l 347 793 b 222 292 347 663 222 461 l 222 256 l 319 256 l 319 292 b 444 793 319 433 444 660 z m 222 39 b 261 0 222 14 236 0 l 319 0 l 319 128 l 222 128 z "}}}
